<svg width="16" height="21" viewBox="0 0 16 21" fill="none" xmlns="http://www.w3.org/2000/svg">
<path d="M8 0.371582C8.26522 0.371582 8.51957 0.476939 8.70711 0.664475C8.89464 0.852012 9 1.10637 9 1.37158V11.9576L11.293 9.66458C11.4816 9.48242 11.7342 9.38163 11.9964 9.38391C12.2586 9.38619 12.5094 9.49135 12.6948 9.67676C12.8802 9.86217 12.9854 10.113 12.9877 10.3752C12.99 10.6374 12.8892 10.89 12.707 11.0786L8.707 15.0786C8.51947 15.2661 8.26516 15.3714 8 15.3714C7.73484 15.3714 7.48053 15.2661 7.293 15.0786L3.293 11.0786C3.19749 10.9863 3.12131 10.876 3.0689 10.754C3.01649 10.632 2.9889 10.5008 2.98775 10.368C2.9866 10.2352 3.0119 10.1035 3.06218 9.98063C3.11246 9.85773 3.18671 9.74608 3.2806 9.65219C3.3745 9.55829 3.48615 9.48404 3.60905 9.43376C3.73194 9.38348 3.86362 9.35818 3.9964 9.35933C4.12918 9.36048 4.2604 9.38807 4.3824 9.44048C4.50441 9.49289 4.61475 9.56907 4.707 9.66458L7 11.9576V1.37158C7 1.10637 7.10536 0.852012 7.29289 0.664475C7.48043 0.476939 7.73478 0.371582 8 0.371582ZM1 15.3716C1.26522 15.3716 1.51957 15.4769 1.70711 15.6645C1.89464 15.852 2 16.1064 2 16.3716V18.3716H14V16.3716C14 16.1064 14.1054 15.852 14.2929 15.6645C14.4804 15.4769 14.7348 15.3716 15 15.3716C15.2652 15.3716 15.5196 15.4769 15.7071 15.6645C15.8946 15.852 16 16.1064 16 16.3716V18.3716C16 18.902 15.7893 19.4107 15.4142 19.7858C15.0391 20.1609 14.5304 20.3716 14 20.3716H2C1.46957 20.3716 0.960859 20.1609 0.585786 19.7858C0.210714 19.4107 0 18.902 0 18.3716V16.3716C0 16.1064 0.105357 15.852 0.292893 15.6645C0.48043 15.4769 0.734783 15.3716 1 15.3716Z" fill="#90909E"/>
</svg>
