<svg width="28" height="25" viewBox="0 0 28 25"  xmlns="http://www.w3.org/2000/svg">
<path fill-rule="evenodd" clip-rule="evenodd" d="M10.1111 2.37158C9.57417 2.37158 9.13889 2.74468 9.13889 3.20492C9.13889 3.66515 9.57417 4.03825 10.1111 4.03825H17.8889C18.4258 4.03825 18.8611 3.66515 18.8611 3.20492C18.8611 2.74468 18.4258 2.37158 17.8889 2.37158H10.1111ZM5.25 6.53825C5.25 6.07802 5.68528 5.70492 6.22222 5.70492H9.13889H18.8611H21.7778C22.3146 5.70492 22.75 6.07802 22.75 6.53825C22.75 6.99848 22.3146 7.37158 21.7778 7.37158H20.8056V20.7049C20.8056 21.6254 19.935 22.3716 18.8611 22.3716H9.13889C8.06501 22.3716 7.19444 21.6254 7.19444 20.7049V7.37158H6.22222C5.68528 7.37158 5.25 6.99848 5.25 6.53825ZM9.13889 7.37158H18.8611V20.7049H9.13889V7.37158Z"/>
</svg>
